<svg width="32" height="32" viewBox="0 0 32 32" fill="none" xmlns="http://www.w3.org/2000/svg">
<path fill-rule="evenodd" clip-rule="evenodd" d="M27.3757 22.3271C26.717 21.0498 25.3237 20.1938 23.637 20.4058C22.0184 20.6084 20.1864 20.9124 18.3437 21.3738C15.3477 22.1231 12.769 23.6404 10.993 24.9124L10.4597 25.3058L10.2143 25.4924L9.76635 25.8471L9.37835 26.1671L8.91569 26.5698C7.79035 27.5711 8.55569 29.2071 9.82768 29.3271L9.97702 29.3338H21.437C22.3798 29.3337 23.3119 29.1336 24.1717 28.7468C25.0316 28.36 25.7995 27.7952 26.425 27.0898L26.6423 26.8311L26.909 26.4991C27.9397 25.2098 28.0263 23.5884 27.3757 22.3271ZM23.9677 23.0511C24.501 22.9844 24.8384 23.2258 25.0064 23.5498C25.0946 23.728 25.1344 23.9263 25.1218 24.1247C25.1091 24.3232 25.0445 24.5148 24.9344 24.6804L24.8263 24.8338L24.5597 25.1671C24.2122 25.6012 23.7781 25.9581 23.2849 26.215C22.7918 26.4718 22.2505 26.6231 21.6957 26.6591L21.437 26.6671H13.1424C14.6757 25.6364 16.7117 24.5298 18.9904 23.9604C20.63 23.5596 22.2921 23.255 23.9677 23.0511ZM6.66635 2.66709C5.83969 2.66709 5.23435 3.11775 4.85302 3.60575C4.48902 4.06842 4.25302 4.64575 4.08902 5.20042C3.75568 6.32442 3.59968 7.76975 3.53968 9.21242C3.49035 10.4271 3.50768 11.7138 3.57035 12.9138L3.62635 13.7938C3.71968 15.0844 3.86635 16.2138 4.03168 16.9564C4.74235 20.1538 5.98502 22.0858 7.37568 23.1391C8.70769 24.1471 10.2517 24.3657 11.2624 23.8591C11.7037 23.6391 12.1317 23.2431 12.4864 22.8324C12.9122 22.3312 13.2712 21.7768 13.5544 21.1831C14.1757 19.8831 14.5584 18.1258 13.9317 16.2458C13.5437 15.0818 12.7957 14.3564 12.137 13.8138L11.713 13.4724C10.9624 12.8751 10.3384 12.3631 9.85969 11.4044C9.73569 11.1564 9.64502 10.6578 9.62369 9.81109L9.61968 9.40709L9.63035 8.41242C9.63702 8.01242 9.64368 7.58975 9.63968 7.18042C9.63035 6.31375 9.57569 5.28709 9.23969 4.45109C9.06102 4.00709 8.77568 3.54309 8.31035 3.19109C7.83557 2.83905 7.25728 2.65473 6.66635 2.66709ZM6.79568 5.53375C6.90635 5.86975 6.96502 6.41375 6.97302 7.20709V7.58309L6.96102 8.50175C6.95435 8.94842 6.94769 9.41909 6.95835 9.87509C6.97968 10.7311 7.05968 11.7684 7.47435 12.5964C8.05435 13.7591 8.79835 14.5124 9.46102 15.0764L9.84768 15.3964L10.0517 15.5578C10.845 16.1898 11.2104 16.5138 11.401 17.0884C11.753 18.1418 11.561 19.1724 11.1477 20.0324C10.9437 20.4631 10.6944 20.8258 10.4637 21.0938C10.357 21.2191 10.265 21.3084 10.1984 21.3684L10.0984 21.4538L9.97169 21.4484C9.79435 21.4338 9.44635 21.3631 8.98502 21.0138C8.25568 20.4604 7.25702 19.1804 6.63435 16.3778C6.57835 16.1231 6.52235 15.7964 6.47035 15.4164L6.39569 14.8071C6.38235 14.7004 6.37079 14.5902 6.36102 14.4764L6.29835 13.7698L6.24635 13.0124L6.22502 12.6191L6.19435 11.8111C6.16876 10.9814 6.17188 10.1512 6.20368 9.32175C6.26102 7.95242 6.40635 6.76575 6.64635 5.95775C6.6881 5.81328 6.73795 5.67261 6.79568 5.53375Z" fill="#FF2741"/>
</svg>
