<svg width="32" height="32" viewBox="0 0 32 32" fill="none" xmlns="http://www.w3.org/2000/svg">
<path d="M22.9333 14.5335C22.2667 13.2002 21.3333 11.7335 20.1333 10.2668C19.3333 9.06683 18.4 8.00016 17.3333 6.80016L16 5.3335L14.6667 6.80016C13.8667 8.00016 12.9333 9.06683 12 10.2668C10.9333 11.8668 10 13.3335 9.33333 14.5335C8.53333 16.1335 8 17.4668 8 18.5335C8 23.0668 11.6 26.6668 16.1333 26.6668C20.6667 26.6668 24.2667 23.0668 24.2667 18.5335C24.2667 17.4668 23.8667 16.1335 22.9333 14.5335ZM16.1333 24.6668C12.8 24.6668 10 21.8668 10 18.5335C10 18.1335 10.1333 17.2002 11.0667 15.4668C11.7333 14.2668 12.5333 12.9335 13.7333 11.3335C14.6667 10.1335 15.4667 9.06683 16.1333 8.26683C17.0667 9.3335 17.8667 10.4002 18.5333 11.3335C19.6 12.8002 20.5333 14.2668 21.2 15.4668C22.1333 17.2002 22.2667 18.1335 22.2667 18.5335C22.2667 21.8668 19.4667 24.6668 16.1333 24.6668Z" fill="#FF2741"/>
</svg>
