<svg width="32" height="32" viewBox="0 0 32 32" fill="none" xmlns="http://www.w3.org/2000/svg">
<path d="M5.99968 26.6667C5.81035 26.6667 5.65168 26.6031 5.52368 26.476C5.39568 26.3489 5.33213 26.1902 5.33302 26V16.2053L7.97968 8.66667C8.04457 8.45511 8.16813 8.29067 8.35035 8.17333C8.53257 8.056 8.74013 7.99822 8.97302 8H15.457C15.4472 8.17067 15.4455 8.34044 15.4517 8.50933C15.4579 8.67822 15.4695 8.85022 15.4864 9.02533C15.4864 9.08222 15.4872 9.13511 15.489 9.184C15.4917 9.232 15.4984 9.28178 15.509 9.33333H9.18502L7.22102 14.872H19.1357C19.7837 15.2836 20.4348 15.6089 21.089 15.848C21.7432 16.0871 22.5255 16.2062 23.4357 16.2053H6.66635V22.6667H25.333V15.9693C25.5775 15.9151 25.8068 15.8484 26.021 15.7693C26.2344 15.6902 26.4495 15.5969 26.6664 15.4893V26C26.6664 26.1902 26.6028 26.3489 26.4757 26.476C26.3486 26.6031 26.1899 26.6667 25.9997 26.6667H25.693C25.5028 26.6667 25.3437 26.6031 25.2157 26.476C25.0877 26.3489 25.0241 26.1902 25.025 26V24H6.97435V26C6.97435 26.1902 6.91079 26.3489 6.78368 26.476C6.65657 26.6031 6.49746 26.6667 6.30635 26.6667H5.99968ZM22.869 12.4107L22.733 11.3307C22.3686 11.2596 22.053 11.144 21.7864 10.984C21.5188 10.8258 21.285 10.632 21.085 10.4027L20.1157 10.852L19.549 9.88267L20.381 9.21067C20.269 8.85867 20.213 8.52356 20.213 8.20533C20.213 7.88711 20.269 7.552 20.381 7.2L19.549 6.544L20.1144 5.57467L21.077 6.008C21.277 5.77867 21.5108 5.58444 21.7784 5.42533C22.045 5.26711 22.3632 5.15156 22.733 5.07867L22.869 4H23.9944L24.1384 5.072C24.5072 5.14933 24.8255 5.26711 25.093 5.42533C25.3606 5.58356 25.5944 5.77778 25.7944 6.008L26.7557 5.57467L27.3224 6.544L26.497 7.2C26.6099 7.552 26.6677 7.88844 26.6704 8.20933C26.673 8.52933 26.6152 8.86578 26.497 9.21867L27.3237 9.87467L26.7637 10.844L25.7944 10.4027C25.5944 10.632 25.3592 10.8262 25.089 10.9853C24.8197 11.1436 24.5028 11.2587 24.1384 11.3307L23.9944 12.4107H22.869ZM24.8904 9.66C25.2886 9.26267 25.4877 8.77778 25.4877 8.20533C25.4877 7.63289 25.2886 7.14756 24.8904 6.74933C24.4921 6.35111 24.0072 6.15244 23.4357 6.15333C22.8641 6.15422 22.3792 6.35289 21.981 6.74933C21.5828 7.14578 21.3841 7.63111 21.385 8.20533C21.3859 8.77956 21.5846 9.26444 21.981 9.66C22.3775 10.0556 22.8624 10.2542 23.4357 10.256C24.009 10.2578 24.4939 10.0591 24.8904 9.66ZM9.89702 20.9227C10.3157 20.9227 10.6681 20.7796 10.9543 20.4933C11.2406 20.2071 11.3841 19.8547 11.385 19.436C11.3859 19.0173 11.2423 18.6649 10.9543 18.3787C10.6663 18.0924 10.3139 17.9493 9.89702 17.9493C9.48013 17.9493 9.12768 18.0924 8.83968 18.3787C8.55168 18.6649 8.40857 19.0173 8.41035 19.436C8.41213 19.8547 8.55524 20.2071 8.83968 20.4933C9.12413 20.7796 9.47657 20.9227 9.89702 20.9227ZM22.1024 20.9227C22.521 20.9227 22.8735 20.7796 23.1597 20.4933C23.4459 20.2071 23.589 19.8547 23.589 19.436C23.589 19.0173 23.4459 18.6649 23.1597 18.3787C22.8735 18.0924 22.521 17.9493 22.1024 17.9493C21.6837 17.9493 21.3312 18.0924 21.045 18.3787C20.7588 18.6649 20.6157 19.0173 20.6157 19.436C20.6157 19.8547 20.7588 20.2071 21.045 20.4933C21.3312 20.7796 21.6837 20.9227 22.1024 20.9227Z" fill="#FF2741"/>
</svg>
