<svg width="32" height="32" viewBox="0 0 32 32" fill="none" xmlns="http://www.w3.org/2000/svg">
<path fill-rule="evenodd" clip-rule="evenodd" d="M27 19C27.5523 19 28 19.4477 28 20V26C28 26.5523 27.5523 27 27 27C26.4477 27 26 26.5523 26 26V20C26 19.4477 26.4477 19 27 19Z" fill="#FF2741"/>
<path fill-rule="evenodd" clip-rule="evenodd" d="M4 16C4 15.4477 4.44772 15 5 15H27C27.5523 15 28 15.4477 28 16C28 16.5523 27.5523 17 27 17H5C4.44772 17 4 16.5523 4 16Z" fill="#FF2741"/>
<path fill-rule="evenodd" clip-rule="evenodd" d="M16 5C16.5523 5 17 5.44772 17 6L17 26C17 26.5523 16.5523 27 16 27C15.4477 27 15 26.5523 15 26L15 6C15 5.44772 15.4477 5 16 5Z" fill="#FF2741"/>
<path fill-rule="evenodd" clip-rule="evenodd" d="M27 5C27.5523 5 28 5.44772 28 6V16C28 16.5523 27.5523 17 27 17C26.4477 17 26 16.5523 26 16L26 6C26 5.44772 26.4477 5 27 5Z" fill="#FF2741"/>
<path fill-rule="evenodd" clip-rule="evenodd" d="M5 5C5.55229 5 6 5.44772 6 6L6 26C6 26.5523 5.55228 27 5 27C4.44772 27 4 26.5523 4 26L4 6C4 5.44772 4.44772 5 5 5Z" fill="#FF2741"/>
</svg>
