<svg width="43" height="36" viewBox="0 0 43 36" fill="none" xmlns="http://www.w3.org/2000/svg">
<g clip-path="url(#clip0_78_15585)">
<path fill-rule="evenodd" clip-rule="evenodd" d="M31.0754 3.15625C30.037 7.52192 29.702 9.57043 28.9316 12.7271C28.1611 15.8167 27.5582 18.6376 26.5533 19.9809C25.5483 21.3242 24.175 21.6936 23.1365 21.7607C22.6341 21.8615 22.2991 21.8615 21.2607 21.8615C20.2223 21.8615 19.8203 21.8615 19.3849 21.7607C18.4469 21.66 17.0735 21.3242 15.9681 19.9809C14.9297 18.604 14.3603 15.7831 13.5898 12.7271C12.8194 9.57043 12.3839 7.52192 11.446 3.15625C11.446 3.15625 10.5081 3.15625 10.0056 3.257C9.40268 3.257 8.96721 3.257 8.46475 3.35774C8.46475 3.35774 9.0677 12.4249 9.30218 16.1861C9.57016 20.216 10.0726 26.9324 10.5081 32.0704C10.5081 32.0704 11.3455 32.2383 12.7189 32.2383C14.0923 32.4062 14.7622 32.507 14.7622 32.507C15.3652 30.2906 16.1356 27.1339 16.9061 25.757C17.576 24.6488 18.6144 24.548 19.2174 24.4809C20.1553 24.3801 20.9257 24.313 21.2607 24.313C21.5957 24.313 22.3661 24.313 23.304 24.4809C23.907 24.5816 24.9119 24.6488 25.6153 25.757C26.4528 27.1339 27.1562 30.1898 27.7592 32.507C27.7592 32.507 28.3621 32.507 29.8025 32.4062C31.1759 32.3055 32.0133 32.2383 32.0133 32.2383C32.4488 27.1003 32.9512 20.3503 33.2192 16.354C33.4872 12.5257 34.0567 3.52565 34.0567 3.52565C33.5542 3.42491 33.1187 3.42491 32.5158 3.35774C32.1138 3.15625 31.0754 3.15625 31.0754 3.15625Z" fill="#FF2741"/>
<path fill-rule="evenodd" clip-rule="evenodd" d="M40.0528 18.5373C39.7179 23.2388 39.2824 26.1269 38.7799 28.1754C38.2775 29.9552 37.6745 31.1642 36.7366 32.0037C35.1957 33.4478 33.0854 33.7836 31.8795 33.9851C29.2332 34.4216 24.7111 34.5896 21.2274 34.5896C17.7437 34.5896 13.2215 34.4216 10.5753 33.9851C9.36937 33.8172 7.25904 33.4813 5.71817 32.0037C4.78025 31.1642 4.1773 29.9552 3.67484 28.1754C3.07189 26.1269 2.70342 23.306 2.36845 18.5373C2.20096 15.7164 2.20096 11.0149 2.53593 8.52985C2.9714 4.8694 4.74675 2.98881 8.49844 2.28358C10.1063 1.94776 12.5181 1.6791 14.7289 1.61194C16.5378 1.54478 19.519 1.44403 21.1269 1.44403C22.7348 1.44403 25.716 1.54478 27.5249 1.61194C29.7357 1.71269 32.114 1.94776 33.9228 2.28358C37.6745 2.95522 39.4499 4.83582 39.8853 8.52985C40.1198 11.1157 40.2203 15.7164 40.0528 18.5373ZM42.0962 8.6306C41.4932 2.72015 37.7415 1.44403 34.4253 0.873134C32.7169 0.604478 29.8362 0.369403 27.8598 0.268657C26.2185 0.100746 22.2993 0 21.1269 0C19.921 0 16.0018 0.100746 14.394 0.16791C12.5181 0.268657 9.53685 0.503731 7.82849 0.839552C4.51227 1.44403 0.760579 2.6194 0.157629 8.59702C-0.00985718 10.209 -0.00985718 12.3582 -0.00985718 14.5746C0.0906345 18.3358 0.325115 20.8881 0.492601 22.6007C0.593093 23.8097 1.09555 27.4701 1.6985 29.25C2.53593 31.8022 3.30637 32.5746 4.1773 33.347C5.78516 34.7239 8.53194 35.1269 9.13489 35.3284C12.2166 35.9328 18.3466 36 21.0599 36C23.7732 36 29.9367 35.8993 32.9849 35.3284C33.5879 35.2276 36.2341 34.8246 37.9425 33.347C38.8804 32.5746 39.5504 31.8022 40.4213 29.25C41.0242 27.3694 41.5267 23.7761 41.6272 22.6007C41.7947 20.8209 42.1297 18.3358 42.1297 14.5746C42.2636 12.291 42.2636 10.2425 42.0962 8.6306Z" fill="#FF2741"/>
</g>
<defs>
<clipPath id="clip0_78_15585">
<rect width="42.24" height="36" fill="white"/>
</clipPath>
</defs>
</svg>
