<svg width="24" height="24" viewBox="0 0 24 24" fill="none" xmlns="http://www.w3.org/2000/svg">
<path fill-rule="evenodd" clip-rule="evenodd" d="M20.25 14.25C20.6642 14.25 21 14.5858 21 15V19.5C21 19.9142 20.6642 20.25 20.25 20.25C19.8358 20.25 19.5 19.9142 19.5 19.5V15C19.5 14.5858 19.8358 14.25 20.25 14.25Z" fill="#1F3045"/>
<path fill-rule="evenodd" clip-rule="evenodd" d="M3 12C3 11.5858 3.33579 11.25 3.75 11.25H20.25C20.6642 11.25 21 11.5858 21 12C21 12.4142 20.6642 12.75 20.25 12.75H3.75C3.33579 12.75 3 12.4142 3 12Z" fill="#1F3045"/>
<path fill-rule="evenodd" clip-rule="evenodd" d="M12 3.75C12.4142 3.75 12.75 4.08579 12.75 4.5L12.75 19.5C12.75 19.9142 12.4142 20.25 12 20.25C11.5858 20.25 11.25 19.9142 11.25 19.5L11.25 4.5C11.25 4.08579 11.5858 3.75 12 3.75Z" fill="#1F3045"/>
<path fill-rule="evenodd" clip-rule="evenodd" d="M20.25 3.75C20.6642 3.75 21 4.08579 21 4.5V12C21 12.4142 20.6642 12.75 20.25 12.75C19.8358 12.75 19.5 12.4142 19.5 12L19.5 4.5C19.5 4.08579 19.8358 3.75 20.25 3.75Z" fill="#1F3045"/>
<path fill-rule="evenodd" clip-rule="evenodd" d="M3.75 3.75C4.16421 3.75 4.5 4.08579 4.5 4.5L4.5 19.5C4.5 19.9142 4.16421 20.25 3.75 20.25C3.33579 20.25 3 19.9142 3 19.5L3 4.5C3 4.08579 3.33579 3.75 3.75 3.75Z" fill="#1F3045"/>
</svg>
