<svg width="32" height="32" viewBox="0 0 32 32" fill="none" xmlns="http://www.w3.org/2000/svg">
<path d="M15.9999 22.6667V28M15.9999 6.66667V4M15.9999 12V16M2.76921 24.5987C2.65544 24.9957 2.63542 25.4137 2.71075 25.8197C2.78607 26.2258 2.95467 26.6088 3.20326 26.9385C3.45185 27.2683 3.77364 27.5358 4.14326 27.72C4.51288 27.9042 4.92024 28.0001 5.33321 28H26.6665C27.0795 28.0002 27.4868 27.9046 27.8565 27.7205C28.2262 27.5365 28.548 27.2691 28.7967 26.9395C29.0455 26.6098 29.2142 26.2269 29.2897 25.821C29.3652 25.415 29.3454 24.997 29.2319 24.6L23.8985 5.93333C23.7392 5.37607 23.4025 4.8859 22.9396 4.53706C22.4768 4.18821 21.9128 3.99968 21.3332 4H10.6665C10.0869 3.99968 9.52299 4.18821 9.06011 4.53706C8.59723 4.8859 8.26061 5.37607 8.10121 5.93333L2.76921 24.5987Z" stroke="#FF2741" stroke-width="2" stroke-linecap="round" stroke-linejoin="round"/>
</svg>
