<svg width="24" height="24" viewBox="0 0 24 24" fill="none" xmlns="http://www.w3.org/2000/svg">
<g clip-path="url(#clip0_304_62569)">
<path d="M19.5001 12.5722L12.0001 20.0002L4.50006 12.5722C4.00536 12.0908 3.6157 11.5122 3.3556 10.8728C3.09551 10.2334 2.97062 9.54713 2.98879 8.85711C3.00697 8.16709 3.16782 7.48831 3.46121 6.86351C3.75461 6.23871 4.17419 5.68143 4.69354 5.22676C5.21289 4.77208 5.82076 4.42987 6.47887 4.22166C7.13697 4.01345 7.83106 3.94376 8.51743 4.01698C9.20379 4.0902 9.86756 4.30473 10.4669 4.64708C11.0663 4.98943 11.5883 5.45218 12.0001 6.00618C12.4136 5.4562 12.9362 4.9975 13.5352 4.65878C14.1341 4.32007 14.7966 4.10863 15.481 4.0377C16.1654 3.96677 16.8571 4.03787 17.5128 4.24657C18.1685 4.45526 18.7741 4.79705 19.2916 5.25054C19.8091 5.70403 20.2275 6.25946 20.5205 6.88207C20.8135 7.50468 20.9748 8.18106 20.9944 8.86889C21.0139 9.55671 20.8913 10.2412 20.6342 10.8794C20.3771 11.5177 19.991 12.096 19.5001 12.5782" stroke="#FF2741" stroke-width="2" stroke-linecap="round" stroke-linejoin="round"/>
<path d="M12.0001 6L8.70709 9.293C8.51962 9.48053 8.41431 9.73484 8.41431 10C8.41431 10.2652 8.51962 10.5195 8.70709 10.707L9.25009 11.25C9.94009 11.94 11.0601 11.94 11.7501 11.25L12.7501 10.25C13.3468 9.65327 14.1562 9.31803 15.0001 9.31803C15.844 9.31803 16.6534 9.65327 17.2501 10.25L19.5001 12.5" stroke="#FF2741" stroke-width="2" stroke-linecap="round" stroke-linejoin="round"/>
<path d="M12.5 15.5L14.5 17.5" stroke="#FF2741" stroke-width="2" stroke-linecap="round" stroke-linejoin="round"/>
<path d="M15 13L17 15" stroke="#FF2741" stroke-width="2" stroke-linecap="round" stroke-linejoin="round"/>
</g>
<defs>
<clipPath id="clip0_304_62569">
<rect width="24" height="24" fill="white"/>
</clipPath>
</defs>
</svg>
