<svg width="32" height="32" viewBox="0 0 32 32" fill="none" xmlns="http://www.w3.org/2000/svg">
<path d="M29.3337 16C29.3337 21.028 29.3337 23.5427 27.771 25.104C26.2083 26.6653 23.695 26.6667 18.667 26.6667H13.3337C8.30566 26.6667 5.79099 26.6667 4.22966 25.104C2.66833 23.5413 2.66699 21.028 2.66699 16C2.66699 10.972 2.66699 8.45733 4.22966 6.896C5.64699 5.47867 7.84833 5.34667 12.0003 5.33333M20.0003 5.33333C24.1523 5.34667 26.3537 5.47733 27.771 6.89333C28.643 7.76533 29.0283 8.932 29.1977 10.6667M16.0003 6.66667V4M10.667 14H21.3337M10.667 18.6667H18.0003" stroke="#FF2741" stroke-width="1.5" stroke-linecap="round"/>
</svg>
